<svg id="Capa_1" enable-background="new 0 0 512 512" height="512" viewBox="0 0 512 512" width="512" xmlns="http://www.w3.org/2000/svg"><g><path d="m479.33 122.91-216-121c-4.554-2.547-10.111-2.545-14.66 0l-216 121c-4.74 2.66-7.67 7.66-7.67 13.09v240c0 3.307 1.23 6.14 1.33 6.14.86.37 42.92 17.86 229.67 17.86s228.81-17.49 229.67-17.86c.1 0 1.33-2.834 1.33-6.14v-240c0-5.43-2.93-10.43-7.67-13.09z" fill="#edf3ff"/><path d="m487 136v240c0 3.307-1.23 6.14-1.33 6.14-.86.37-42.92 17.86-229.67 17.86v-400c2.53 0 5.06.64 7.33 1.91l216 121c4.74 2.66 7.67 7.66 7.67 13.09z" fill="#d8e5fb"/><path d="m256 279.05c-.1-.05 5.07-2.315-229.68 103.09 1.29 2.89 3.49 5.35 6.35 6.95l216 121c4.51 2.512 10.026 2.581 14.66 0l216-121c2.87-1.6 5.06-4.06 6.35-6.95z" fill="#d8e5fb"/><path d="m485.68 382.14c-1.29 2.89-3.48 5.35-6.35 6.95l-216 121c-2.28 1.27-4.8 1.91-7.33 1.91v-232.95z" fill="#bdd8fc"/><path d="m377.29 162.58-121.29 60.65-121.29-60.65c-9.96-4.97-21.71 2.27-21.71 13.42v160c0 5.68 3.21 10.88 8.29 13.42 108.29 54.17 128.68 64.53 131.13 65.14 2.36.585 4.766.588 7.16 0 2.57-.64 26.77-12.93 131.13-65.14 5.08-2.54 8.29-7.74 8.29-13.42v-160c0-11.13-11.74-18.4-21.71-13.42z" fill="#00da80"/><path d="m399 176v160c0 5.68-3.21 10.88-8.29 13.42-136.772 68.426-129.948 65.58-134.71 65.58v-191.77l121.29-60.65c9.97-4.98 21.71 2.29 21.71 13.42z" fill="#00b4bc"/><path d="m390.71 162.58-128-64c-4.102-2.061-9.136-2.152-13.42 0l-128 64c-2.96 1.48-5.28 3.86-6.7 6.71l134.7 67.36c4.126 2.053 9.08 2.16 13.42 0l134.7-67.36c-1.42-2.85-3.74-5.23-6.7-6.71z" fill="#bee75e"/><path d="m397.41 169.29-134.7 67.36c-2.11 1.05-4.41 1.58-6.71 1.58v-141.23c2.3 0 4.6.52 6.71 1.58l128 64c2.96 1.48 5.28 3.86 6.7 6.71z" fill="#00da80"/></g></svg>