<svg id="Layer_1" enable-background="new 0 0 500 500" viewBox="0 0 500 500" xmlns="http://www.w3.org/2000/svg"><g><g><path d="m250.003 424.486-225-129.904 224.994-129.9 224.999 129.904z" fill="#d7daff"/><g fill="#5d7280"><g><g><path d="m298.076 242.946-44.398-25.633c17.877-3.723 33.261-3.469 41.908 1.523 8.645 4.991 9.084 13.874 2.49 24.11z"/><path d="m282.252 260.034-58.024-33.5c5.568-2.368 11.43-4.399 16.997-6.091l51.431 29.693c-2.785 3.299-6.303 6.683-10.404 9.898z"/><path d="m190.527 243.791 61.98 35.784c-7.324 3.723-14.944 6.936-22.419 9.558l-56.264-32.484c4.543-4.315 10.108-8.714 16.703-12.858z"/><path d="m261.738 274.415-62.42-36.038c4.688-2.706 9.671-5.245 14.506-7.53l60.957 35.194c-3.958 2.791-8.355 5.668-13.043 8.374z"/></g><path d="m114.63 298.439 43.225 24.956c-14.946 2.708-28.865 1.776-37.656-3.299-8.647-4.993-10.259-13.028-5.569-21.657z"/><path d="m186.864 313.921c-5.419 2.623-10.839 4.738-16.409 6.429l-50.551-29.185c2.783-3.301 6.446-6.429 10.989-9.558z"/><path d="m195.95 308.844-56.264-32.484c5.859-3.213 12.161-5.837 18.606-7.698l50.992 29.439c-3.223 3.722-7.768 7.36-13.334 10.743z"/></g><g><g><path d="m383.416 292.218-44.398-25.633c17.877-3.723 33.261-3.47 41.908 1.522 8.646 4.992 9.085 13.874 2.49 24.111z"/><path d="m367.593 309.306-58.024-33.5c5.568-2.368 11.43-4.399 16.997-6.091l51.431 29.693c-2.785 3.299-6.303 6.682-10.404 9.898z"/><path d="m275.868 293.062 61.981 35.785c-7.324 3.723-14.944 6.936-22.419 9.558l-56.264-32.484c4.541-4.315 10.107-8.715 16.702-12.859z"/><path d="m347.08 323.687-62.421-36.039c4.688-2.707 9.671-5.244 14.506-7.53l60.957 35.194c-3.958 2.791-8.355 5.668-13.042 8.375z"/></g><path d="m199.971 347.711 43.225 24.955c-14.946 2.708-28.865 1.776-37.656-3.299-8.648-4.992-10.259-13.027-5.569-21.656z"/><path d="m272.204 363.192c-5.42 2.623-10.839 4.738-16.409 6.43l-50.551-29.186c2.783-3.3 6.446-6.429 10.989-9.558z"/><path d="m281.291 358.115-56.264-32.484c5.859-3.214 12.161-5.838 18.607-7.699l50.991 29.44c-3.223 3.723-7.768 7.361-13.334 10.743z"/></g></g><path d="m250 446.083-225-129.904v-21.641l225 129.905z" fill="#aeb2f4"/><path d="m475 316.179-225 129.904v-21.64l225-129.905z" fill="#888abf"/></g><g><g enable-background="new"><g><path d="m307.004 68.759-.046 16.168-25.579-14.768.046-16.168z" fill="#3b4951"/></g><g><path d="m218.061 53.991-.046 16.168-25.414 14.769.046-16.168z" fill="#3b4951"/></g><g><path d="m355.251 96.615-.046 16.167-25.58-14.768.046-16.168z" fill="#3b4951"/></g><g><path d="m144.714 96.615-.045 16.168-.367-42.625.046-16.167z" fill="#3b4951"/></g><g><path d="m170.128 81.847-.046 16.168-25.413 14.768.045-16.168z" fill="#3b4951"/></g><g><path d="m329.671 81.846-.046 16.168-56.992 33.12.046-16.168z" fill="#3b4951"/></g><g><path d="m227.493 114.966-.046 16.168-57.365-33.119.046-16.168z" fill="#3b4951"/></g><g><path d="m307.524 161.173-.045 16.167-57.365-33.119.045-16.168z" fill="#3b4951"/></g><g><path d="m250.159 128.053-.045 16.168-56.992 33.12.045-16.168z" fill="#3b4951"/></g><g><path d="m355.697 176.013-.045 16.168-73.587-.072.046-16.168z" fill="#3b4951"/></g><g><path d="m218.747 175.942-.046 16.167-73.711.001.046-16.168z" fill="#3b4951"/></g><g><path d="m355.012 53.917.239 42.698-25.58-14.769-56.992 33.12 57.365 33.12 25.413-14.769.24 42.696-73.586-.072 25.413-14.768-57.365-33.12-56.992 33.12 25.58 14.769h-73.711l-.115-42.624 25.579 14.769 56.993-33.121-57.365-33.119-25.414 14.768-.366-42.624h73.713l-25.414 14.769 57.365 33.119 56.992-33.12-25.579-14.768z" fill="#5d7280"/></g><g><path d="m145.036 175.942-.046 16.168-.115-42.624.046-16.168z" fill="#3b4951"/></g></g></g></g></svg>