<svg width="512" height="512" viewBox="0 0 512 512" fill="none" xmlns="http://www.w3.org/2000/svg">
<g clip-path="url(#clip0_1_4)">
<path d="M407 240.998C349.109 240.998 302 288.107 302 345.998C302 368.102 308.812 389.255 321.878 407.404L395.003 505.992C397.83 509.771 402.283 511.998 407 511.998H407.015C411.732 511.998 416.185 509.757 419.012 505.977L495.096 403.068C506.156 386.076 512 366.344 512 345.998C512 288.107 464.891 240.998 407 240.998ZM407 390.998C382.186 390.998 362 370.812 362 345.998C362 321.184 382.186 300.998 407 300.998C431.814 300.998 452 321.184 452 345.998C452 370.812 431.814 390.998 407 390.998Z" fill="#F4F4F4"/>
<path d="M22.72 2.137C18.076 -0.632 12.32 -0.719 7.603 1.947C2.9 4.612 0 9.593 0 14.998V315.998C0 321.271 2.769 326.149 7.28 328.859L151 414.49V78.508L22.72 2.137Z" fill="#F4F4F4"/>
<path d="M474.72 92.137L332 6.5V233.851C353.471 219.446 379.258 210.998 407 210.998C434.742 210.998 460.529 219.446 482 233.851V104.998C482 99.725 479.231 94.847 474.72 92.137Z" fill="#F4F4F4"/>
<path d="M302 6.5L181 78.506V414.49L273.082 359.842C272.608 355.244 272 350.667 272 345.997C272 314.181 283.521 285.29 302 262.191V6.5Z" fill="#F4F4F4"/>
</g>
<defs>
<clipPath id="clip0_1_4">
<rect width="512" height="512" fill="white"/>
</clipPath>
</defs>
</svg>
