<svg id="Layer_1" enable-background="new 0 0 512 512" height="512" viewBox="0 0 512 512" width="512" xmlns="http://www.w3.org/2000/svg" xmlns:xlink="http://www.w3.org/1999/xlink"><linearGradient id="lg1"><stop offset=".1621" stop-color="#588188"/><stop offset=".2614" stop-color="#6f9399"/><stop offset=".5422" stop-color="#a9c1c4"/><stop offset=".7496" stop-color="#cededf"/><stop offset=".8595" stop-color="#dce9e9"/></linearGradient><radialGradient id="SVGID_1_" cx="225.54038" cy="231.642515" gradientUnits="userSpaceOnUse" r="124.290855" xlink:href="#lg1"/><radialGradient id="SVGID_2_" cx="357.039605" cy="304.15047" gradientUnits="userSpaceOnUse" r="244.961665" xlink:href="#lg1"/><radialGradient id="SVGID_3_" cx="262.997735" cy="303.80948" gradientUnits="userSpaceOnUse" r="171.70036" xlink:href="#lg1"/><radialGradient id="SVGID_4_" cx="332.01649" cy="341.21529" gradientUnits="userSpaceOnUse" r="230.77093" xlink:href="#lg1"/><g><g><path d="m141.702 236.216c10.899 20.302 132.879-47.431 124.033-81.596-18.722-80.327-179.825-30.371-124.033 81.596z" fill="url(#SVGID_1_)"/><path d="m176.492 269.361c10.705 34.505 226.868-42.36 233.108-98.147-5.489-140.535-260.053-155.293-233.108 98.147z" fill="url(#SVGID_2_)"/><path d="m105.313 298.05c10.087 48.794 190.376-23.805 186.895-70.84-5.276-110.037-216.906-85.047-186.895 70.84z" fill="url(#SVGID_3_)"/><path d="m185.234 306.472c8.603 27.728 195.005-38.817 192.272-83.196-3.863-103.845-205.986-83.542-192.272 83.196z" fill="url(#SVGID_4_)"/></g><path d="m325.262 387.775c0 21.014 32.568 21.565 32.568-.527 0-18.618-16.299-35.817-16.299-35.817s-16.269 16.883-16.269 36.344z" fill="#37c0ff"/><path d="m353.339 385.55c.039 6.875 1.789 4.944 2.104 2.209.924-9.845-5.785-20.513-5.785-20.513 1.157 2.631 3.643 11.43 3.681 18.304z" fill="#afe6ff"/><path d="m355.531 291.884c0 21.014 32.568 21.565 32.568-.527 0-18.619-16.299-35.818-16.299-35.818s-16.269 16.883-16.269 36.345z" fill="#37c0ff"/><path d="m383.608 289.659c.039 6.875 1.789 4.944 2.104 2.209.924-9.845-5.786-20.513-5.786-20.513 1.157 2.629 3.643 11.429 3.682 18.304z" fill="#afe6ff"/><path d="m274.476 343.243c0 21.014 32.568 21.565 32.568-.528 0-18.618-16.299-35.817-16.299-35.817s-16.269 16.884-16.269 36.345z" fill="#37c0ff"/><path d="m302.554 341.019c.039 6.875 1.788 4.944 2.104 2.209.924-9.845-5.786-20.513-5.786-20.513 1.157 2.63 3.643 11.429 3.682 18.304z" fill="#afe6ff"/><path d="m183.965 368.804c0 21.015 32.568 21.565 32.568-.527 0-18.618-16.299-35.817-16.299-35.817s-16.269 16.883-16.269 36.344z" fill="#37c0ff"/><path d="m212.042 366.581c.039 6.874 1.789 4.944 2.104 2.208.924-9.845-5.786-20.513-5.786-20.513 1.157 2.63 3.643 11.43 3.682 18.305z" fill="#afe6ff"/><path d="m237.797 425.229c0 21.014 32.568 21.565 32.568-.527 0-18.618-16.298-35.818-16.298-35.818s-16.27 16.883-16.27 36.345z" fill="#37c0ff"/><path d="m265.875 423.004c.039 6.875 1.789 4.944 2.104 2.209.924-9.845-5.786-20.513-5.786-20.513 1.157 2.63 3.643 11.429 3.682 18.304z" fill="#afe6ff"/></g></svg>