<svg width="512" height="448" viewBox="0 0 512 448" fill="none" xmlns="http://www.w3.org/2000/svg">
<path d="M479.867 307.862V148.612L449.867 158.612V307.862C431.212 314.143 417.734 331.788 417.734 352.533V432.866C417.734 441.15 424.45 447.866 432.734 447.866H497C505.284 447.866 512 441.15 512 432.866V352.533C512 331.788 498.522 314.143 479.867 307.862Z" fill="#F4F4F4"/>
<path d="M241.775 218.492L96.4 170.034V272.2C96.4 276.179 97.981 279.994 100.794 282.807C142.256 324.264 197.379 347.096 256.007 347.096C314.636 347.096 369.754 324.264 411.207 282.805C414.02 279.992 415.6 276.177 415.6 272.2V170.034L270.23 218.491C260.293 221.8 250.29 221.329 241.775 218.492Z" fill="#F4F4F4"/>
<path d="M256 190.8C257.602 190.8 259.204 190.543 260.743 190.03L501.743 109.697C507.868 107.655 512 101.923 512 95.467C512 89.011 507.869 83.279 501.743 81.237L260.743 0.904C257.665 -0.121 254.335 -0.121 251.257 0.904L10.257 81.237C4.131 83.278 0 89.01 0 95.467C0 101.924 4.131 107.655 10.257 109.697L251.257 190.03C252.796 190.543 254.398 190.8 256 190.8Z" fill="#F4F4F4"/>
</svg>
