<svg id="Layer_1" enable-background="new 0 0 500 500" viewBox="0 0 500 500" xmlns="http://www.w3.org/2000/svg"><g><g><g><g><path d="m376.804 224.905v122.311h-.186c0 18.628-12.422 37.445-37.072 51.746-49.489 28.602-129.649 28.602-179.139 0-24.649-14.301-37.069-33.118-37.069-51.746v-122.311z" fill="#3b4951"/></g></g><g><g><path d="m376.804 224.905v67.93l-126.827 73.198-126.638-73.198v-67.93z" fill="#2c353b"/></g></g><g><g><ellipse cx="249.963" cy="224.937" fill="#3b4951" rx="126.73" ry="73.168"/></g></g></g><g><g><path d="m158.728 349.718c0 11.106-20.109 45.179-20.109 45.179s-20.109-34.073-20.109-45.179 9.003-20.108 20.109-20.108 20.109 9.003 20.109 20.108z" fill="#f4af00"/></g></g><g><g><path d="m250.003 339.39-225-129.904 224.993-129.9 225 129.904z" fill="#5d7280"/></g></g><g><g><g><path d="m250 339.253-225-129.904v10.259l225 129.904z" fill="#3b4951"/></g></g><g><g><path d="m250 339.253 225-129.904v10.259l-225 129.904z" fill="#2c353b"/></g></g></g><g><g><path d="m138.626 344.098c-2.591 0-4.704-2.113-4.704-4.704v-64.445c0-1.672.882-3.215 2.315-4.061l111.377-65.456c2.242-1.341 5.109-.569 6.45 1.672 1.304 2.242.569 5.127-1.672 6.45l-109.062 64.078v61.762c0 2.59-2.113 4.704-4.704 4.704z" fill="#f7d23a"/></g></g></g></svg>