<svg id="Layer_1" enable-background="new 0 0 512 512" height="512" viewBox="0 0 512 512" width="512" xmlns="http://www.w3.org/2000/svg"><g><path d="m331.169 35.239-212.544 122.712c-8.961 5.174-16.225 17.756-16.225 28.103v245.425c0 4.931 1.65 8.465 4.347 10.253 2.962 1.964 62.206 35.885 62.206 35.885l162.216-159.483c8.961-5.173 16.226-17.756 16.226-28.103l57.485-219.994s-59.301-34.239-62.237-35.935c-2.937-1.695-6.993-1.45-11.474 1.137z" fill="#29b04b"/><path d="m393.375 71.153-212.544 122.712c-8.961 5.174-16.225 17.756-16.225 28.103v245.425c0 10.347 7.264 14.542 16.225 9.368l212.544-122.713c8.961-5.173 16.225-17.756 16.225-28.103v-245.424c0-10.348-7.264-14.542-16.225-9.368z" fill="#33cf5b"/><path d="m281.122 296.601-38.76-22.378-27.181 47.08 38.759 22.377 34.338 19.825 27.181-47.079 77.914-134.95-34.338-19.826z" fill="#66f78c"/><g fill="#29b04b"><path d="m305.302 147.253h15.837v155.827h-15.837z" transform="matrix(-.866 -.5 .5 -.866 471.904 576.773)"/><path d="m213.996 266.622h15.837v54.363h-15.837z" transform="matrix(-.866 -.5 .5 -.866 267.195 659.203)"/></g></g></svg>