<svg width="461" height="357" viewBox="0 0 461 357" fill="none" xmlns="http://www.w3.org/2000/svg">
<path fill-rule="evenodd" clip-rule="evenodd" d="M36.964 20.486L175.284 158.866C205.452 188.976 254.766 189.002 284.959 158.866L423.279 20.486C424.672 19.093 424.469 16.799 422.853 15.672C408.745 5.833 391.58 0 373.09 0H87.154C68.663 0 51.498 5.834 37.39 15.672C35.774 16.799 35.571 19.093 36.964 20.486ZM0 87.153C0 72.613 3.605 58.875 9.955 46.8C10.948 44.911 13.465 44.529 14.974 46.038L151.543 182.607C194.79 225.917 265.428 225.942 308.701 182.607L445.27 46.038C446.779 44.529 449.296 44.911 450.289 46.8C456.638 58.875 460.244 72.614 460.244 87.153V269.09C460.244 317.183 421.123 356.244 373.09 356.244H87.154C39.122 356.244 0 317.183 0 269.09V87.153Z" fill="#F4F4F4"/>
</svg>
