<svg height="512" viewBox="0 0 256 256" width="512" xmlns="http://www.w3.org/2000/svg"><g fill="none" stroke-miterlimit="10" stroke-width="0" transform="matrix(2.81 0 0 2.81 1.407 1.407)"><path d="m0 0h45v45h-45z" fill="#ffbe00"/><path d="m45 0h45v45h-45z" fill="#7bd8f7"/><path d="m0 45h45v45h-45z" fill="#81bcda"/><path d="m45 45h45v45h-45z" fill="#4390b3"/><g fill="#fff"><path d="m22.5 31.014c-4.794 0-8.693-3.9-8.693-8.693s3.9-8.693 8.693-8.693 8.693 3.9 8.693 8.693-3.899 8.693-8.693 8.693zm0-15.341c-3.665 0-6.648 2.982-6.648 6.648s2.982 6.648 6.648 6.648 6.648-2.982 6.648-6.648-2.983-6.648-6.648-6.648z"/><path d="m22.5 11.159c-.565 0-1.023-.458-1.023-1.023v-3.156c0-.565.458-1.023 1.023-1.023s1.023.458 1.023 1.023v3.157c0 .564-.458 1.022-1.023 1.022z"/><path d="m22.5 38.684c-.565 0-1.023-.458-1.023-1.023v-3.157c0-.565.458-1.023 1.023-1.023s1.023.458 1.023 1.023v3.157c0 .565-.458 1.023-1.023 1.023z"/><path d="m10.316 23.343h-3.157c-.565 0-1.023-.458-1.023-1.023s.458-1.023 1.023-1.023h3.157c.565 0 1.023.458 1.023 1.023-.001.566-.459 1.023-1.023 1.023z"/><path d="m37.841 23.343h-3.157c-.565 0-1.023-.458-1.023-1.023s.458-1.023 1.023-1.023h3.157c.565 0 1.023.458 1.023 1.023 0 .566-.458 1.023-1.023 1.023z"/><path d="m31.116 14.728c-.262 0-.523-.1-.723-.3-.4-.4-.4-1.047 0-1.446l2.232-2.232c.4-.4 1.047-.4 1.446 0 .4.4.4 1.047 0 1.446l-2.232 2.232c-.2.2-.462.3-.723.3z"/><path d="m11.652 34.191c-.262 0-.523-.1-.723-.3-.4-.4-.4-1.047 0-1.446l2.232-2.232c.4-.4 1.047-.4 1.446 0 .4.4.4 1.047 0 1.446l-2.232 2.232c-.199.2-.461.3-.723.3z"/><path d="m13.884 14.728c-.262 0-.523-.1-.723-.3l-2.232-2.232c-.4-.4-.4-1.047 0-1.446.4-.4 1.047-.4 1.446 0l2.232 2.232c.4.4.4 1.047 0 1.446-.199.2-.461.3-.723.3z"/><path d="m33.347 34.191c-.262 0-.523-.1-.723-.3l-2.232-2.232c-.4-.4-.4-1.047 0-1.446.4-.4 1.047-.4 1.446 0l2.232 2.232c.4.4.4 1.047 0 1.446-.199.2-.461.3-.723.3z"/><path d="m67.5 36.128c-4.324 0-7.841-3.943-7.841-8.789 0-4.04 1.904-7.12 3.745-10.097 1.58-2.556 3.073-4.971 3.073-7.704 0-.565.457-1.023 1.023-1.023s1.023.458 1.023 1.023c0 2.734 1.493 5.148 3.073 7.704 1.842 2.978 3.745 6.057 3.745 10.097 0 4.846-3.517 8.789-7.841 8.789zm0-22.066c-.642 1.482-1.506 2.88-2.356 4.255-1.691 2.735-3.44 5.563-3.44 9.022 0 3.718 2.6 6.744 5.796 6.744s5.796-3.025 5.796-6.744c0-3.459-1.749-6.287-3.44-9.022-.85-1.375-1.714-2.773-2.356-4.255z"/><path d="m19.944 62.903c-.354 0-.697-.183-.887-.511l-3.835-6.643c-.282-.489-.115-1.115.375-1.397.488-.283 1.114-.116 1.397.375l3.835 6.643c.282.489.115 1.115-.375 1.397-.16.092-.337.136-.51.136z"/><path d="m28.893 78.402c-.354 0-.697-.183-.887-.511l-3.835-6.643c-.282-.489-.115-1.115.375-1.397.488-.284 1.114-.115 1.397.375l3.835 6.643c.282.489.115 1.115-.375 1.397-.16.092-.337.136-.51.136z"/><path d="m17.814 59.213c-.079 0-.158-.009-.238-.028l-2.661-.634c-.549-.131-.888-.682-.758-1.231.131-.55.686-.887 1.232-.758l2.661.634c.549.131.888.682.758 1.231-.112.471-.532.786-.994.786z"/><path d="m17.813 59.213c-.097 0-.195-.014-.293-.043-.541-.161-.849-.73-.688-1.271l.781-2.622c.161-.542.731-.849 1.272-.688s.849.73.688 1.271l-.781 2.622c-.131.445-.538.731-.979.731z"/><path d="m26.407 78.072c-.097 0-.195-.014-.293-.043-.541-.161-.849-.73-.688-1.271l.781-2.622c.161-.542.732-.848 1.272-.688.541.161.849.73.688 1.271l-.781 2.622c-.132.444-.539.731-.979.731z"/><path d="m29.849 76.084c-.079 0-.158-.009-.238-.028l-2.661-.634c-.549-.131-.888-.682-.758-1.231.131-.55.687-.888 1.232-.758l2.661.634c.549.131.888.682.758 1.231-.112.471-.532.786-.994.786z"/><path d="m25.056 62.903c-.173 0-.349-.044-.51-.137-.489-.283-.657-.908-.375-1.397l3.835-6.643c.283-.488.906-.657 1.397-.375.489.283.657.908.375 1.397l-3.835 6.643c-.19.329-.534.512-.887.512z"/><path d="m16.107 78.402c-.173 0-.349-.044-.51-.137-.489-.283-.657-.908-.375-1.397l3.835-6.643c.283-.489.906-.658 1.397-.375.489.283.657.908.375 1.397l-3.835 6.643c-.19.329-.533.512-.887.512z"/><path d="m27.186 59.213c-.462 0-.882-.316-.994-.786-.131-.549.208-1.101.758-1.231l2.661-.634c.551-.129 1.101.208 1.232.758.131.549-.208 1.101-.758 1.231l-2.661.634c-.08.019-.159.028-.238.028z"/><path d="m27.187 59.213c-.44 0-.847-.287-.98-.731l-.781-2.622c-.161-.541.147-1.111.688-1.271.539-.161 1.111.146 1.272.688l.781 2.622c.161.541-.147 1.111-.688 1.271-.097.029-.195.043-.292.043z"/><path d="m18.593 78.072c-.44 0-.847-.287-.98-.731l-.781-2.622c-.161-.541.147-1.111.688-1.271s1.111.146 1.272.688l.781 2.622c.161.541-.147 1.111-.688 1.271-.096.029-.195.043-.292.043z"/><path d="m15.151 76.084c-.462 0-.882-.316-.994-.786-.131-.549.208-1.101.758-1.231l2.661-.634c.55-.13 1.101.208 1.232.758.131.549-.208 1.101-.758 1.231l-2.661.634c-.08.019-.159.028-.238.028z"/><path d="m17.386 67.331h-7.67c-.565 0-1.023-.457-1.023-1.023 0-.565.458-1.023 1.023-1.023h7.67c.565 0 1.023.457 1.023 1.023s-.458 1.023-1.023 1.023z"/><path d="m35.284 67.331h-7.67c-.565 0-1.023-.457-1.023-1.023 0-.565.458-1.023 1.023-1.023h7.67c.565 0 1.023.457 1.023 1.023s-.458 1.023-1.023 1.023z"/><path d="m11.246 69.319c-.252 0-.505-.093-.703-.28-.41-.388-.428-1.036-.04-1.446l1.879-1.988c.388-.41 1.036-.427 1.446-.04.41.388.428 1.036.04 1.446l-1.879 1.988c-.201.213-.472.32-.743.32z"/><path d="m13.125 67.331c-.271 0-.542-.107-.743-.32l-1.879-1.987c-.388-.41-.37-1.058.04-1.446s1.057-.371 1.446.04l1.879 1.987c.388.41.37 1.058-.04 1.446-.197.187-.451.28-.703.28z"/><path d="m33.754 69.319c-.271 0-.542-.107-.743-.32l-1.879-1.988c-.388-.41-.37-1.059.04-1.446.41-.388 1.058-.371 1.446.04l1.879 1.988c.388.41.37 1.059-.04 1.446-.198.187-.451.28-.703.28z"/><path d="m31.875 67.331c-.252 0-.505-.093-.703-.28-.41-.389-.428-1.036-.04-1.446l1.879-1.987c.389-.41 1.035-.427 1.446-.04.41.389.428 1.036.04 1.446l-1.879 1.987c-.201.213-.472.32-.743.32z"/><path d="m25.057 71.76h-5.114c-.366 0-.703-.195-.886-.511l-2.557-4.429c-.182-.317-.182-.706 0-1.023l2.557-4.428c.183-.317.52-.511.886-.511h5.114c.366 0 .703.195.886.511l2.557 4.428c.182.317.182.706 0 1.023l-2.557 4.428c-.183.317-.521.512-.886.512zm-4.524-2.046h3.933l1.966-3.406-1.966-3.406h-3.933l-1.966 3.406z"/><path d="m71.277 81.044c-.565 0-1.023-.457-1.023-1.023 0-.565.457-1.023 1.023-1.023 1.771 0 3.211-1.441 3.211-3.212s-1.44-3.212-3.211-3.212h-12.47c-.565 0-1.023-.457-1.023-1.023 0-.565.457-1.023 1.023-1.023h12.47c2.898 0 5.256 2.358 5.256 5.257s-2.357 5.259-5.256 5.259z"/><path d="m76.049 68.379h-21.333c-.565 0-1.023-.457-1.023-1.023 0-.565.457-1.023 1.023-1.023h21.333c1.771 0 3.212-1.441 3.212-3.212s-1.441-3.212-3.212-3.212c-.565 0-1.023-.457-1.023-1.023s.457-1.023 1.023-1.023c2.899 0 5.257 2.358 5.257 5.257.001 2.901-2.357 5.259-5.257 5.259z"/><path d="m72.017 64.269h-11.2c-.565 0-1.023-.457-1.023-1.023s.457-1.023 1.023-1.023h11.2c.565 0 1.023.457 1.023 1.023s-.457 1.023-1.023 1.023z"/></g></g></svg>